#!OML:ASF H:\Terrain\Patient Classification 1\Takeo\Monday\TakeoMonday.ASF
:FULLY-SPECIFIED
:DEGREES
580
root 9.71544 17.5535 -0.20228 -5.84118 -29.8193 1.75576
lowerback 8.58293 2.06535 -0.668939
upperback 3.85691 2.6248 -1.76015
thorax -0.763015 1.30229 -1.67539
lowerneck -15.6008 1.06834 -2.70271
upperneck -2.34288 1.90972 -3.07547
head 1.92166 0.834919 -0.400674
rclavicle -8.50301e-014 2.54444e-014
rhumerus -8.11611 18.5798 -63.7452
rradius 108.349
rwrist -8.1406
rhand -28.0589 30.3532
rfingers 7.12502
rthumb -1.44276 0.378358
lclavicle -8.50301e-014 2.54444e-014
lhumerus -35.5102 -15.2935 92.7974
lradius 111.511
lwrist 21.41
lhand -28.6473 3.22945
lfingers 7.12502
lthumb -2.01105 33.1997
rfemur 3.98621 -2.55645 18.3539
rtibia 24.5119
rfoot -19.9996 -16.3873
rtoes -10.5167
lfemur -12.195 11.4358 -18.8133
ltibia 33.6546
lfoot -12.3004 14.2999
ltoes -9.52857
581
root 9.70994 17.5432 -0.215441 -5.85377 -30.1717 1.92122
lowerback 8.2856 1.99809 -0.543962
upperback 3.87132 2.55578 -1.50389
thorax -0.592958 1.26813 -1.46295
lowerneck -15.6256 1.67222 -2.23837
upperneck -2.17203 2.65685 -3.82281
head 2.0063 1.17473 -0.673729
rclavicle 2.66868e-014 1.78906e-014
rhumerus -10.1937 18.9365 -65.0151
rradius 109.263
rwrist -8.18764
rhand -27.7406 30.6526
rfingers 7.12502
rthumb -1.13535 0.675852
lclavicle 2.66868e-014 1.78906e-014
lhumerus -35.5405 -15.0176 92.9959
lradius 111.477
lwrist 21.3994
lhand -28.456 2.63013
lfingers 7.12502
lthumb -1.82627 32.6021
rfemur 3.64969 -2.23042 18.2943
rtibia 24.9224
rfoot -20.2955 -16.2498
rtoes -9.82803
lfemur -12.3391 11.6747 -18.8878
ltibia 33.7935
lfoot -12.3042 14.4467
ltoes -8.78483
582
root 9.70529 17.5447 -0.221828 -6.44112 -30.4558 2.51747
lowerback 8.29978 1.95829 -0.738177
upperback 3.98239 2.49139 -1.31244
thorax -0.504471 1.23174 -1.14977
lowerneck -15.8069 2.09871 -2.02576
upperneck -1.77494 3.23065 -4.50323
head 2.19894 1.42331 -0.891355
rclavicle 2.49723e-014 -1.98785e-015
rhumerus -12.136 19.162 -66.061
rradius 109.936
rwrist -8.18174
rhand -27.6257 31.046
rfingers 7.12502
rthumb -1.02441 1.06874
lclavicle 2.49723e-014 -1.98785e-015
lhumerus -35.5857 -14.7393 93.2968
lradius 111.478
lwrist 21.1748
lhand -28.1696 2.53949
lfingers 7.12502
lthumb -1.54973 32.5136
rfemur 3.65815 -2.17918 17.7135
rtibia 25.4293
rfoot -20.4289 -16.0523
rtoes -10.1389
lfemur -12.0083 11.9206 -19.2479
ltibia 33.8987
lfoot -12.8202 14.3534
ltoes -6.36932
583
root 9.70166 17.5288 -0.228598 -6.92538 -30.7047 2.96664
lowerback 8.38193 1.92454 -0.646105
upperback 3.97661 2.45355 -1.19557
thorax -0.557607 1.21292 -1.08099
lowerneck -15.497 2.35156 -2.2369
upperneck -1.7312 3.59702 -4.59266
head 2.15966 1.606 -0.86168
rclavicle 6.22382e-014 -1.635e-014
rhumerus -14.2564 19.2908 -67.2753
rradius 110.508
rwrist -7.99962
rhand -27.6797 31.6196
rfingers 7.12502
rthumb -1.07659 1.6426
lclavicle 6.22382e-014 -1.635e-014
lhumerus -35.8155 -14.6477 93.6831
lradius 111.545
lwrist 21.0081
lhand -28.0267 2.92943
lfingers 7.12502
lthumb -1.41165 32.9045
rfemur 3.58489 -2.31894 17.2352
rtibia 26.0262
rfoot -20.5919 -15.7912
rtoes -10.6461
lfemur -11.74 12.4278 -19.5205
ltibia 33.9806
lfoot -12.8811 14.3859
ltoes -6.89975
584
root 9.70129 17.4988 -0.238784 -6.94935 -31.0007 2.85994
lowerback 8.48092 1.77597 -0.19927
upperback 3.7956 2.29294 -0.942132
thorax -0.794433 1.13588 -1.06363
lowerneck -15.144 2.85737 -1.78355
upperneck -1.5484 4.21209 -5.29067
head 2.19878 1.88642 -1.1298
rclavicle 6.69904e-014 -1.55549e-014
rhumerus -16.6312 19.8246 -68.7523
rradius 111.109
rwrist -7.7729
rhand -27.7229 31.9541
rfingers 7.12502
rthumb -1.11825 1.97732
lclavicle 6.69904e-014 -1.55549e-014
lhumerus -36.2857 -14.2552 94.0089
lradius 111.781
lwrist 21.2252
lhand -27.9132 3.30168
lfingers 7.12502
lthumb -1.30207 33.2775
rfemur 3.23069 -2.28454 17.3621
rtibia 26.7728
rfoot -20.8897 -15.8369
rtoes -11.302
lfemur -11.7147 13.0134 -19.3758
ltibia 34.0071
lfoot -12.5419 14.7376
ltoes -10.0105
585
root 9.70036 17.4835 -0.256261 -6.91116 -31.3165 2.62946
lowerback 8.66994 1.5909 0.135208
upperback 3.65555 2.07975 -0.525712
thorax -1.0505 1.02897 -0.812001
lowerneck -15.0175 3.53327 -1.08746
upperneck -1.17177 5.05446 -6.45563
head 2.38613 2.25331 -1.57757
rclavicle -3.68746e-014 1.94809e-014
rhumerus -18.9876 20.374 -70.0529
rradius 111.745
rwrist -7.54074
rhand -27.6123 32.3158
rfingers 7.12502
rthumb -1.01146 2.33842
lclavicle -3.68746e-014 1.94809e-014
lhumerus -36.6714 -13.756 94.4691
lradius 111.941
lwrist 21.4059
lhand -28.0917 3.36519
lfingers 7.12502
lthumb -1.47452 33.3398
rfemur 2.79328 -2.10355 17.6658
rtibia 27.6136
rfoot -21.0978 -15.8217
rtoes -11.2426
lfemur -11.679 13.4667 -19.0403
ltibia 34.0095
lfoot -12.8101 14.8128
ltoes -9.90568
586
root 9.69639 17.4607 -0.277305 -7.23716 -31.5548 2.95902
lowerback 8.85295 1.46936 -0.0901511
upperback 3.66507 1.90513 -0.182191
thorax -1.16319 0.936977 -0.320787
lowerneck -15.0683 4.10842 -0.779731
upperneck -0.939351 5.81637 -7.25059
head 2.5431 2.59292 -1.84087
rclavicle -1.06027e-013 2.42517e-014
rhumerus -21.0216 20.5863 -71.0387
rradius 112.359
rwrist -7.07993
rhand -27.6437 32.8176
rfingers 7.12502
rthumb -1.04181 2.84036
lclavicle -1.06027e-013 2.42517e-014
lhumerus -36.7417 -13.2977 95.0078
lradius 111.959
lwrist 21.2224
lhand -28.2345 3.4714
lfingers 7.12502
lthumb -1.61237 33.4451
rfemur 2.50578 -1.99115 17.3959
rtibia 28.3294
rfoot -21.403 -15.5036
rtoes -10.139
lfemur -11.5908 14.0885 -19.239
ltibia 34.0961
lfoot -12.6607 14.9281
ltoes -11.2057
587
root 9.69222 17.443 -0.28897 -7.81785 -31.7147 3.57287
lowerback 9.02562 1.2707 -0.502609
upperback 3.74598 1.60769 -0.0297472
thorax -1.19148 0.78328 0.0934072
lowerneck -15.2712 4.67877 -0.146507
upperneck -0.691547 6.52187 -7.95723
head 2.75288 2.90325 -2.13509
rclavicle 7.49915e-014 2.78299e-015
rhumerus -22.8974 20.7714 -72.1925
rradius 112.912
rwrist -6.30651
rhand -27.4931 33.0699
rfingers 7.12502
rthumb -0.896367 3.09206
lclavicle 7.49915e-014 2.78299e-015
lhumerus -36.7921 -12.6048 95.147
lradius 112.061
lwrist 21.0743
lhand -27.9099 3.55071
lfingers 7.12502
lthumb -1.29885 33.5265
rfemur 2.42353 -1.89851 16.8183
rtibia 28.9989
rfoot -21.8708 -15.4611
rtoes -10.6106
lfemur -11.4701 14.6385 -19.6909
ltibia 34.2695
lfoot -12.8504 15.1369
ltoes -10.0635
588
root 9.68643 17.4455 -0.299146 -8.08414 -31.9002 3.66729
lowerback 9.23579 1.09898 -0.346004
upperback 3.73028 1.3941 0.124569
thorax -1.32208 0.676692 0.181337
lowerneck -15.1648 5.16146 0.525992
upperneck -0.502724 7.08984 -8.4915
head 2.88386 3.16208 -2.3944
rclavicle -9.14409e-015 -5.56597e-015
rhumerus -25.1467 20.7033 -73.5384
rradius 113.398
rwrist -5.55733
rhand -27.1198 33.3148
rfingers 7.12502
rthumb -0.535824 3.33574
lclavicle -9.14409e-015 -5.56597e-015
lhumerus -37.0995 -12.3448 95.2394
lradius 112.248
lwrist 21.3917
lhand -28.0959 3.51831
lfingers 7.12502
lthumb -1.47856 33.4929
rfemur 2.24138 -1.69093 16.822
rtibia 29.8193
rfoot -22.224 -15.718
rtoes -11.8849
lfemur -11.4323 15.0675 -19.6157
ltibia 34.4337
lfoot -13.7615 15.2593
ltoes -4.65754
589
root 9.68198 17.4331 -0.313086 -8.28004 -32.0118 3.93857
lowerback 9.31759 0.97964 -0.34245
upperback 3.6743 1.23992 0.313996
thorax -1.42807 0.598913 0.388396
lowerneck -14.8806 5.58691 0.589911
upperneck -0.459864 7.65772 -8.70455
head 2.88861 3.44107 -2.43764
rclavicle -4.92489e-014 3.97569e-015
rhumerus -27.2659 20.7105 -74.5892
rradius 113.777
rwrist -5.24694
rhand -27.326 33.2696
rfingers 7.12502
rthumb -0.734948 3.29111
lclavicle -4.92489e-014 3.97569e-015
lhumerus -37.4893 -12.3467 95.656
lradius 112.547
lwrist 22.1525
lhand -29.133 3.37684
lfingers 7.12502
lthumb -2.48014 33.3422
rfemur 1.84361 -1.64445 16.6287
rtibia 30.6791
rfoot -22.5201 -15.6784
rtoes -11.8456
lfemur -11.4463 15.4774 -19.8246
ltibia 34.6326
lfoot -14.3029 15.4532
ltoes -3.03897
